<?xml version="1.0" standalone="no"?>
<!DOCTYPE svg PUBLIC "-//W3C//DTD SVG 20010904//EN"
 "http://www.w3.org/TR/2001/REC-SVG-20010904/DTD/svg10.dtd">
<svg version="1.0" xmlns="http://www.w3.org/2000/svg"
 width="1896.000000pt" height="1896.000000pt" viewBox="0 0 1896.000000 1896.000000"
 preserveAspectRatio="xMidYMid meet">
<metadata>
Created by potrace 1.11, written by Peter Selinger 2001-2013
</metadata>
<g transform="translate(0.000000,1896.000000) scale(0.100000,-0.100000)"
fill="#000000" stroke="none">
<path d="M2585 14011 c-2 -1 -67 -2 -144 -2 -78 1 -141 -1 -141 -4 0 -7 81
-114 113 -150 10 -11 37 -45 60 -75 23 -30 54 -68 69 -85 16 -16 28 -33 28
-37 0 -3 14 -20 30 -36 17 -17 30 -33 30 -37 0 -3 6 -13 13 -21 23 -28 32 -39
71 -89 22 -28 44 -54 51 -60 6 -5 22 -26 35 -45 13 -19 27 -37 30 -40 3 -3 32
-39 65 -80 32 -41 63 -76 67 -78 4 -2 8 -8 8 -13 0 -5 8 -18 18 -28 9 -11 22
-26 27 -33 6 -7 29 -36 53 -64 23 -29 42 -57 42 -63 0 -6 4 -11 9 -11 5 0 33
-31 62 -70 30 -38 57 -70 61 -70 5 0 8 -6 8 -12 0 -7 18 -33 40 -58 55 -62 60
-68 60 -77 0 -5 9 -14 20 -21 11 -7 20 -17 20 -23 0 -5 10 -21 23 -34 58 -63
67 -75 62 -75 -3 0 11 -17 30 -37 19 -20 35 -40 35 -43 0 -4 18 -26 40 -51 22
-24 40 -47 40 -50 0 -3 9 -17 21 -30 11 -13 28 -33 37 -44 10 -11 31 -38 47
-60 17 -22 42 -53 57 -70 16 -16 28 -33 28 -36 0 -3 10 -17 23 -31 12 -13 31
-37 42 -52 11 -16 32 -41 46 -56 14 -15 36 -43 49 -61 13 -19 31 -41 39 -50 9
-9 25 -29 36 -44 11 -16 25 -33 30 -39 6 -7 26 -32 45 -56 19 -25 38 -46 42
-48 4 -2 8 -10 8 -17 0 -7 4 -15 8 -17 5 -1 45 -49 90 -105 120 -152 100 -140
227 -138 61 1 118 -3 129 -8 10 -5 16 -5 13 0 -7 11 614 10 632 -1 9 -6 12 -5
8 1 -7 12 132 11 152 -1 9 -6 12 -5 8 1 -7 12 132 11 152 -1 9 -6 12 -5 8 1
-7 12 132 11 152 -1 9 -6 12 -5 8 1 -7 12 132 11 152 -1 9 -6 12 -5 8 1 -7 12
132 11 152 -1 9 -6 12 -5 8 1 -7 12 132 11 152 -1 9 -6 12 -5 8 1 -7 12 132
11 152 -1 9 -6 12 -5 8 1 -7 12 132 11 152 -1 9 -6 12 -5 8 1 -7 12 132 11
152 -1 9 -6 12 -5 8 1 -7 12 132 11 152 -1 9 -6 12 -5 8 1 -7 12 132 11 152
-1 9 -6 12 -5 8 1 -7 12 132 11 152 -1 9 -6 12 -5 8 1 -7 12 132 11 152 -1 9
-6 12 -5 8 1 -7 12 132 11 152 -1 9 -6 12 -5 8 1 -7 12 132 11 152 -1 8 -6 12
-5 8 0 -7 12 453 11 472 0 8 -6 12 -5 8 0 -7 12 453 11 472 0 8 -6 12 -5 8 0
-7 12 453 11 472 0 8 -6 12 -5 8 0 -7 12 453 11 472 0 8 -6 12 -5 8 0 -7 12
453 11 472 0 8 -6 12 -5 8 0 -7 12 453 11 472 0 8 -6 12 -5 8 0 -7 12 453 11
472 0 8 -6 12 -5 8 0 -7 12 453 11 472 0 8 -6 12 -5 8 0 -7 12 453 11 472 0 9
-6 12 -5 8 0 -3 6 55 10 154 9 87 -1 159 0 159 2 0 5 -58 79 -87 111 -13 13
-20 28 -17 33 3 5 -2 9 -10 9 -9 0 -16 7 -16 15 0 8 -5 15 -10 15 -6 0 -13 7
-17 16 -3 9 -15 26 -27 38 -12 12 -32 37 -46 55 -14 19 -32 42 -40 52 -8 9
-25 30 -37 46 -48 61 -118 149 -128 159 -5 6 -21 26 -35 44 -34 45 -194 248
-224 285 -27 31 -42 51 -101 125 -20 25 -43 53 -51 63 -8 9 -14 22 -14 27 0 6
-3 10 -8 10 -4 0 -41 43 -82 95 -41 52 -78 95 -82 95 -5 0 -8 6 -8 13 0 7 -12
26 -27 43 -56 62 -73 84 -73 94 0 6 -4 10 -8 10 -5 0 -24 21 -42 48 -19 26
-39 52 -45 57 -7 6 -27 30 -45 55 -19 25 -41 52 -49 61 -28 29 -51 59 -45 59
2 0 -5 11 -18 25 -13 13 -28 30 -33 37 -6 7 -26 33 -45 58 -19 25 -40 51 -48
58 -7 8 -25 30 -40 50 -15 21 -29 39 -32 42 -3 3 -21 25 -40 50 -19 25 -39 50
-45 56 -5 7 -21 26 -35 44 -14 18 -38 49 -55 69 -16 21 -43 54 -60 75 -211
269 -256 321 -285 327 -17 4 -33 3 -36 -2 -3 -5 -9 -7 -14 -4 -8 5 -454 8
-485 4 -5 -1 -14 -1 -19 0 -22 4 -379 1 -383 -3 -3 -3 -16 -1 -29 4 -14 6 -26
6 -29 -1 -4 -5 -10 -7 -15 -4 -8 5 -454 8 -485 4 -5 -1 -14 -1 -19 0 -22 4
-379 1 -383 -3 -3 -3 -16 -1 -29 4 -14 6 -26 6 -29 -1 -4 -5 -10 -7 -15 -4 -8
5 -454 8 -485 4 -5 -1 -14 -1 -19 0 -22 4 -379 1 -383 -3 -3 -3 -16 -1 -29 4
-14 6 -26 6 -29 -1 -4 -5 -10 -7 -15 -4 -8 5 -454 8 -485 4 -5 -1 -14 -1 -19
0 -22 4 -379 1 -383 -3 -3 -3 -16 -1 -29 4 -14 6 -26 6 -29 -1 -4 -5 -10 -7
-15 -4 -8 5 -454 8 -485 4 -5 -1 -14 -1 -19 0 -22 4 -379 1 -383 -3 -3 -3 -16
-1 -29 4 -14 6 -26 6 -29 -1 -4 -5 -10 -7 -15 -4 -7 5 -814 8 -845 4 -5 -1
-13 -1 -17 0 -12 1 -612 2 -623 0 -5 -1 -13 -1 -17 0 -9 1 -608 2 -623 1 -13
-1 -248 0 -466 3 -94 1 -172 0 -174 -2z"/>
<path d="M95 10840 c-2 -3 9 -21 25 -39 17 -18 30 -36 30 -41 0 -5 10 -16 22
-24 12 -9 18 -16 13 -16 -6 0 -6 -3 0 -8 6 -4 29 -29 50 -57 22 -27 42 -52 45
-55 3 -3 18 -23 35 -45 16 -22 38 -48 49 -57 10 -10 16 -18 12 -18 -4 0 3 -11
16 -25 35 -37 50 -56 82 -100 16 -22 37 -49 47 -60 15 -16 257 -321 377 -474
15 -19 32 -39 37 -45 39 -44 95 -116 95 -121 0 -4 6 -12 13 -19 20 -21 65 -77
282 -351 114 -143 218 -273 232 -290 14 -16 46 -57 72 -90 25 -33 50 -65 56
-71 5 -6 21 -26 35 -44 37 -50 193 -244 200 -250 3 -3 17 -21 30 -40 13 -19
29 -40 35 -46 5 -6 22 -26 37 -45 14 -19 36 -45 47 -59 11 -14 24 -29 29 -35
4 -5 22 -29 40 -51 l33 -41 3957 -1 c2176 0 3960 2 3964 5 7 3 -53 84 -124
168 -9 11 -55 70 -102 130 -48 61 -98 122 -111 138 -14 15 -25 31 -25 36 0 5
-4 11 -8 13 -4 2 -23 23 -42 48 -19 25 -43 52 -52 61 -10 9 -18 19 -18 23 0 5
-18 29 -45 60 -6 6 -26 31 -45 56 -19 25 -39 50 -45 56 -5 6 -21 26 -35 44
-14 18 -29 38 -35 44 -5 6 -26 32 -45 56 -19 25 -40 52 -47 60 -7 8 -69 87
-139 175 -69 88 -133 166 -142 173 -9 6 -13 12 -9 12 4 0 -2 10 -13 23 -19 20
-158 194 -220 276 -14 18 -30 38 -36 44 -5 7 -56 71 -113 142 -56 72 -110 139
-119 150 -9 11 -54 67 -100 125 -45 58 -88 112 -95 120 -53 65 -106 132 -127
160 -14 19 -40 51 -57 71 -18 20 -33 42 -33 48 0 7 -4 9 -10 6 -5 -3 -10 0
-10 7 -1 7 -18 31 -38 54 l-37 41 -3958 0 c-2177 0 -3959 -3 -3962 -7z"/>
<path d="M8860 10841 c0 -3 14 -22 30 -41 37 -43 31 -36 120 -150 41 -52 77
-97 80 -100 3 -3 19 -23 35 -45 17 -22 32 -42 36 -45 5 -5 138 -171 204 -255
33 -42 89 -112 107 -134 6 -7 25 -32 43 -55 31 -40 58 -74 80 -100 6 -6 32
-40 60 -76 27 -36 52 -67 55 -70 3 -3 28 -34 55 -69 28 -36 57 -73 65 -82 8
-10 20 -24 25 -31 20 -25 90 -113 100 -124 6 -7 19 -24 30 -40 11 -15 25 -32
30 -38 9 -10 75 -92 157 -197 15 -19 38 -47 51 -64 50 -61 433 -543 452 -569
11 -15 29 -38 40 -50 23 -27 37 -45 85 -106 19 -25 37 -47 40 -50 3 -3 21 -25
40 -50 19 -25 42 -52 50 -61 14 -15 322 -17 3978 -17 2179 0 3962 2 3962 5 0
4 -143 186 -165 209 -5 7 -19 24 -30 40 -35 48 -110 139 -117 142 -5 2 -8 10
-8 17 0 7 -4 15 -8 17 -7 2 -213 258 -407 504 -100 126 -128 159 -136 162 -5
2 -9 8 -9 13 0 5 -32 49 -70 97 -39 48 -83 102 -98 121 -15 19 -33 40 -39 47
-7 7 -13 17 -13 22 0 6 -4 12 -9 14 -5 2 -39 41 -75 88 -91 115 -111 141 -135
170 -11 14 -24 30 -29 35 -4 6 -50 64 -102 130 -52 66 -97 122 -100 125 -3 3
-17 21 -32 42 -15 20 -33 42 -40 50 -7 7 -29 34 -48 58 -19 25 -40 52 -47 60
-7 8 -44 56 -83 105 -40 50 -76 92 -81 93 -5 2 -9 8 -9 13 0 4 -30 46 -66 91
-37 46 -80 99 -95 119 l-29 36 -3965 0 c-2181 0 -3965 -3 -3965 -6z"/>
<path d="M6955 7559 c-2 -3 14 -25 35 -50 22 -24 39 -50 40 -56 0 -7 4 -13 9
-13 4 0 43 -45 85 -100 43 -55 88 -112 102 -127 13 -14 24 -29 24 -33 0 -3 9
-16 20 -28 12 -12 77 -93 146 -179 68 -87 130 -165 137 -173 7 -8 28 -35 47
-60 19 -25 37 -47 40 -50 8 -8 53 -63 80 -100 14 -18 30 -38 35 -44 6 -6 35
-42 65 -81 30 -38 59 -75 65 -81 5 -6 21 -26 35 -44 21 -28 65 -83 202 -255 5
-5 42 -53 84 -105 41 -52 80 -102 87 -110 7 -8 55 -69 107 -135 52 -66 97
-122 100 -125 3 -3 21 -25 40 -50 19 -25 38 -46 42 -48 5 -2 8 -10 8 -18 0 -8
4 -14 8 -14 4 0 46 -49 92 -110 47 -60 88 -110 93 -110 4 0 7 -6 7 -14 0 -8 4
-16 8 -18 4 -1 23 -23 42 -48 19 -24 40 -49 45 -55 6 -7 21 -26 35 -44 14 -18
37 -46 52 -64 14 -18 34 -42 45 -54 15 -19 29 -23 78 -24 33 -1 65 0 70 1 6 1
15 2 20 1 14 -3 208 -3 220 -1 6 1 15 2 20 1 14 -3 208 -3 220 -1 6 1 15 2 20
1 14 -3 208 -3 220 -1 6 1 15 2 20 1 14 -3 208 -3 220 -1 6 1 13 2 18 1 11 -3
290 -3 302 -1 6 1 15 2 20 1 14 -3 208 -3 220 -1 6 1 15 2 20 1 14 -3 208 -3
220 -1 6 1 15 2 20 1 14 -3 208 -3 220 -1 6 1 15 2 20 1 14 -3 208 -3 220 -1
6 1 13 2 18 1 11 -3 290 -3 302 -1 6 1 15 2 20 1 14 -3 208 -3 220 -1 6 1 15
2 20 1 14 -3 208 -3 220 -1 6 1 15 2 20 1 14 -3 208 -3 220 -1 6 1 15 2 20 1
14 -3 208 -3 220 -1 6 1 12 2 15 1 17 -5 199 -3 208 3 6 3 13 2 16 -2 6 -10
48 -8 65 2 5 4 12 2 16 -4 4 -7 12 -7 24 0 10 5 21 7 23 4 8 -8 162 -9 175 -1
6 4 14 3 17 -1 6 -10 48 -8 65 2 5 4 12 2 16 -4 4 -7 12 -7 24 0 10 5 21 7 23
4 8 -8 162 -9 175 -1 6 4 14 3 17 -1 6 -10 48 -8 65 2 5 4 12 2 16 -4 4 -7 12
-7 24 0 10 5 21 7 23 4 8 -8 162 -9 175 -1 6 4 14 3 17 -1 6 -10 48 -8 65 2 5
4 12 2 16 -4 4 -7 12 -7 24 0 10 5 21 7 24 4 5 -5 172 -8 192 -4 6 1 15 2 20
1 14 -3 208 -3 220 -1 6 1 15 2 20 1 14 -3 208 -3 220 -1 6 1 15 2 20 1 14 -3
208 -3 220 -1 6 1 15 2 20 1 14 -3 208 -3 220 -1 6 1 15 2 20 1 14 -3 208 -3
220 -1 6 1 15 2 20 1 14 -3 208 -3 220 -1 6 1 15 2 20 1 14 -3 208 -3 220 -1
6 1 15 2 20 1 14 -3 208 -3 220 -1 6 1 15 2 20 1 14 -3 208 -3 220 -1 6 1 15
2 20 1 14 -3 208 -3 220 -1 6 1 12 2 15 1 15 -6 117 -4 127 2 6 4 14 3 17 -1
6 -10 48 -8 65 2 5 4 12 2 16 -4 4 -6 12 -7 22 -2 8 5 33 6 54 2 21 -4 39 -4
39 -1 0 7 -29 52 -39 61 -4 3 -18 21 -33 42 -15 20 -34 42 -41 50 -7 7 -24 29
-37 48 -13 19 -27 37 -31 40 -3 3 -62 75 -129 160 -67 85 -125 157 -129 160
-3 3 -26 32 -51 65 -25 33 -47 62 -50 65 -24 24 -90 111 -90 118 0 6 -4 12 -9
14 -11 4 -111 125 -111 134 0 4 -10 15 -22 25 -11 11 -18 19 -15 19 3 0 -12
19 -33 43 -22 23 -40 45 -40 48 0 3 -11 19 -25 35 -14 16 -31 36 -38 44 -7 8
-35 44 -63 80 -27 36 -57 72 -66 81 -10 9 -18 19 -18 23 0 5 -26 38 -55 70 -6
6 -24 29 -40 51 -16 22 -38 47 -47 56 -10 9 -18 19 -18 23 0 3 -8 15 -17 27
-41 48 -49 58 -75 90 -14 19 -35 44 -45 56 -10 12 -27 34 -38 49 -17 24 -37
48 -122 154 -7 8 -53 67 -103 130 -50 63 -96 122 -103 130 -7 8 -43 53 -80
100 -37 47 -79 97 -92 113 -14 15 -25 30 -25 33 0 4 -12 21 -27 38 -16 17 -41
49 -58 70 -16 21 -38 48 -48 60 l-19 21 -3960 0 c-2178 0 -3961 -3 -3963 -6z"/>
</g>
</svg>
